<svg xmlns="http://www.w3.org/2000/svg" width="24" height="24" viewBox="0 0 24 24"><path fill="white" d="M20.057 15.038a.423.423 0 01-.003.638c-2.933 2.242-7.182 3.417-10.834 3.417-5.123 0-9.745-2.291-13.22-6.103a.424.424 0 01.004-.612.446.446 0 01.603.002c3.28 3.582 7.615 5.77 12.613 5.77 3.427 0 7.425-1.087 10.232-3.177a.445.445 0 01.605.065m2.657-1.473c-.147.188-.471.141-.614-.048-2.165-2.892-5.1-4.533-8.864-4.533-2.815 0-5.542.968-7.674 2.726a.402.402 0 01-.574-.026.397.397 0 01.028-.567c2.337-1.936 5.316-3.01 8.427-3.01c4.115 0 7.382 1.824 9.714 4.982a.39.39 0 01-.443.476m.486-3.577c-2.23-3.688-6.992-5.945-11.552-5.945-4.164 0-8.381 1.841-11.076 4.972a.427.427 0 01-.597.042.422.422 0 01-.043-.591C3.493 4.754 8.041 2.75 12.578 2.75c4.983 0 10.087 2.447 12.542 6.392a.425.425 0 01-.124.584.428.428 0 01-.59-.123" /></svg>
