<svg xmlns="http://www.w3.org/2000/svg" width="24" height="24" viewBox="0 0 24 24"><path fill="white" d="M1.175 12.225c-.051 0-.094.046-.101.1l-.233 2.154c-.009.086.06.155.146.155h.493c.086 0 .155-.07.155-.156v-2.147c0-.055-.045-.1-.1-.1h-.36zm4.782 0c-.051 0-.093.046-.1.1l-.233 2.154c-.01.086.06.155.146.155h.493c.086 0 .155-.07.155-.156v-2.147c0-.055-.045-.1-.1-.1h-.36zm-2.391 0c-.051 0-.094.046-.101.1l-.233 2.154c-.01.086.06.155.146.155h.493c.086 0 .155-.07.155-.156v-2.147c0-.055-.045-.1-.1-.1h-.36zm8.241 0c-.051 0-.094.046-.101.1l-.233 2.154c-.01.086.06.155.146.155h.493c.086 0 .155-.07.155-.156v-2.147c0-.055-.045-.1-.1-.1h-.36zm2.391 0c-.051 0-.094.046-.101.1l-.233 2.154c-.01.086.06.155.146.155h.493c.086 0 .155-.07.155-.156v-2.147c0-.055-.045-.1-.1-.1h-.36z"/></svg>
