<svg xmlns="http://www.w3.org/2000/svg" width="24" height="24" viewBox="0 0 100 50">
  <path fill="white" d="M84 25c0-1.5-1.2-2.7-2.7-2.7-.5 0-1 .2-1.5.4C79.2 16 73.6 11 67 11c-1.7 0-3.4.3-4.9 1-.6.2-.8.4-.8 1v23.8c0 .6.5 1.2 1.2 1.2h18.8c3.7 0 6.7-3 6.7-6.7 0-2.8-1.7-5.2-4-6.3zM59 14c-.5-.1-1-.2-1.5-.2-5.5 0-10 4.5-10 10v13c0 .6.5 1 1 1h1c.6 0 1-.4 1-1V24c0-3.9 3.1-7 7-7 .5 0 1 .1 1.5.2V14z M43 19c-.6 0-1 .4-1 1v17c0 .6.4 1 1 1s1-.4 1-1V20c0-.6-.4-1-1-1z M37 22c-.6 0-1 .4-1 1v14c0 .6.4 1 1 1s1-.4 1-1V23c0-.6-.4-1-1-1z M31 20c-.6 0-1 .4-1 1v16c0 .6.4 1 1 1s1-.4 1-1V21c0-.6-.4-1-1-1z M25 23c-.6 0-1 .4-1 1v13c0 .6.4 1 1 1s1-.4 1-1V24c0-.6-.4-1-1-1z M19 25c-.6 0-1 .4-1 1v11c0 .6.4 1 1 1s1-.4 1-1V26c0-.6-.4-1-1-1z M13 24c-.6 0-1 .4-1 1v12c0 .6.4 1 1 1s1-.4 1-1V25c0-.6-.4-1-1-1z"/>
</svg>
