<svg xmlns="http://www.w3.org/2000/svg" width="24" height="24" viewBox="0 0 24 24"><path fill="white" d="M12 0C5.376 0 0 5.376 0 12s5.376 12 12 12s12-5.376 12-12S18.624 0 12 0zm5.52 12.168c-.048.072-.12.12-.216.12h-1.152c-.096 0-.168-.048-.216-.12c-.576-.984-1.56-1.992-2.4-1.992c-.816 0-1.56.672-2.4 1.992c-.048.072-.12.12-.216.12H8.52c-.088 0-.16-.048-.208-.12c-.576-.984-1.56-1.992-2.4-1.992V8.688c1.248-.168 2.4.768 3.12 1.992c.768-1.224 1.92-2.16 3.168-1.992c1.248-.168 2.4.768 3.12 1.992c.768-1.224 1.92-2.16 3.168-1.992v1.488c-.84 0-1.824 1.008-2.4 1.992z"/></svg>
